#!OML:ASF G:\ViconDB\ViconDB\414\test\team2\shane.ASF
:FULLY-SPECIFIED
:DEGREES
423
root 1.36094 16.6338 38.6035 -5.74137 2.88 -4.33964
lowerback 7.53214 1.6616 3.21235
upperback 3.73063 2.43212 0.68486
thorax -0.261076 1.25256 -1.27815
lowerneck -13.9475 2.49893 -2.3021
upperneck 22.8085 4.45499 -1.41425
head 9.48779 1.72776 0.442055
rclavicle -3.89369e-014 -1.15295e-014
rhumerus -40.612 23.5708 -93.4806
rradius 57.2326
rwrist 376.184
rhand -18.0893 -4.01247
rfingers 7.12502
rthumb 8.18412 -33.834
lclavicle -3.89369e-014 -1.15295e-014
lhumerus -44.6244 -16.5494 98.4537
lradius 33.5092
lwrist -17.5337
lhand -40.576 7.79873
lfingers 7.12502
lthumb -13.523 37.3396
rfemur 29.4957 -5.73388 14.3513
rtibia 14.0438
rfoot -8.65417 1.02312
rtoes -26.0639
lfemur -21.6888 11.346 -13.6447
ltibia 35.266
lfoot -12.7345 -7.76905
ltoes -1.51527
424
root 1.43039 16.645 38.8034 -6.26409 2.49978 -4.84058
lowerback 7.87286 1.72992 3.90652
upperback 3.91694 2.58009 0.723276
thorax -0.217957 1.33819 -1.64481
lowerneck -14.0427 2.85573 -2.09749
upperneck 22.455 4.88895 -1.39901
head 9.38361 1.95547 0.463485
rclavicle -2.38293e-014 -2.66371e-014
rhumerus -39.398 21.9526 -92.99
rradius 54.1908
rwrist 378.537
rhand -18.4836 -3.96276
rfingers 7.12502
rthumb 7.80363 -33.7988
lclavicle -2.38293e-014 -2.66371e-014
lhumerus -44.6244 -16.5494 98.4537
lradius 33.5092
lwrist -17.5337
lhand -40.576 7.79873
lfingers 7.12502
lthumb -13.523 37.3396
rfemur 27.5594 -5.49659 14.3076
rtibia 20.1449
rfoot -8.0603 1.40804
rtoes -26.3681
lfemur -20.2252 10.8031 -12.9102
ltibia 35.6517
lfoot -14.0821 -6.82762
ltoes -2.62749
425
root 1.48102 16.6695 38.9881 -6.44243 2.86935 -4.57701
lowerback 8.07768 1.66901 3.42547
upperback 3.9649 2.47291 0.630027
thorax -0.305475 1.27839 -1.47081
lowerneck -14.5154 3.30611 -2.05915
upperneck 22.6084 5.48497 -1.20808
head 9.5179 2.24915 0.606143
rclavicle -2.93953e-014 6.75868e-015
rhumerus -38.3064 20.0429 -92.4525
rradius 51.0424
rwrist 381.405
rhand -19.032 -3.87155
rfingers 7.12502
rthumb 7.2743 -33.7265
lclavicle -2.93953e-014 6.75868e-015
lhumerus -44.6244 -16.5494 98.4537
lradius 33.5092
lwrist -17.5337
lhand -40.576 7.79873
lfingers 7.12502
lthumb -13.523 37.3396
rfemur 25.3793 -5.61466 13.8333
rtibia 25.8266
rfoot -6.65622 1.04937
rtoes -26.0932
lfemur -19.372 10.6906 -13.2559
ltibia 35.7716
lfoot -14.3362 -7.32285
ltoes -1.31823
426
root 1.53187 16.7025 39.169 -6.73478 3.1532 -4.39056
lowerback 8.34435 1.66255 3.14767
upperback 4.10141 2.45109 0.526201
thorax -0.320147 1.26637 -1.42734
lowerneck -14.8738 3.71723 -1.80073
upperneck 22.6723 6.01788 -1.23944
head 9.61402 2.5097 0.627596
rclavicle -2.82523e-014 1.63003e-014
rhumerus -37.1929 17.7431 -91.8353
rradius 48.0069
rwrist 384.196
rhand -19.3343 -3.94085
rfingers 7.12502
rthumb 6.98249 -33.8057
lclavicle -2.82523e-014 1.63003e-014
lhumerus -44.6244 -16.5494 98.4537
lradius 33.5092
lwrist -17.5337
lhand -40.576 7.79873
lfingers 7.12502
lthumb -13.523 37.3396
rfemur 23.4442 -5.91484 13.3162
rtibia 30.9182
rfoot -4.55942 0.865586
rtoes -24.867
lfemur -18.344 10.8302 -13.4868
ltibia 35.7417
lfoot -14.7883 -7.86826
ltoes -0.785141
427
root 1.5648 16.7395 39.3369 -6.95495 3.95915 -4.08869
lowerback 8.81671 1.53129 2.63197
upperback 4.10046 2.25282 0.378038
thorax -0.605759 1.15816 -1.29144
lowerneck -15.1102 4.15491 -1.51811
upperneck 22.7921 6.56423 -1.20736
head 9.70691 2.78566 0.668469
rclavicle -2.08724e-015 -3.97569e-015
rhumerus -36.3274 15.0144 -91.2806
rradius 45.0229
rwrist 387.399
rhand -19.8708 -4.29998
rfingers 7.12502
rthumb 6.46454 -34.1813
lclavicle -2.08724e-015 -3.97569e-015
lhumerus -44.6244 -16.5494 98.4537
lradius 33.5092
lwrist -17.5337
lhand -40.576 7.79873
lfingers 7.12502
lthumb -13.523 37.3396
rfemur 21.3338 -6.49567 12.9559
rtibia 35.9206
rfoot -2.07061 0.256014
rtoes -22.7416
lfemur -17.4145 11.237 -13.9011
ltibia 35.305
lfoot -15.1048 -9.02811
ltoes -0.694322
428
root 1.62002 16.7818 39.5165 -7.26676 3.86898 -4.07886
lowerback 9.04976 1.5928 2.66833
upperback 4.0865 2.34521 0.391704
thorax -0.743378 1.20263 -1.31417
lowerneck -14.814 4.67416 -1.3551
upperneck 22.8134 7.28234 -1.34684
head 9.66984 3.12067 0.676393
rclavicle -1.61264e-014 -4.77083e-015
rhumerus -35.8553 12.4352 -90.6083
rradius 42.1904
rwrist 390.406
rhand -20.4027 -4.68265
rfingers 7.12502
rthumb 5.95099 -34.5791
lclavicle -1.61264e-014 -4.77083e-015
lhumerus -44.6244 -16.5494 98.4537
lradius 33.5092
lwrist -17.5337
lhand -40.576 7.79873
lfingers 7.12502
lthumb -13.523 37.3396
rfemur 19.2885 -6.52405 12.7518
rtibia 40.5317
rfoot 0.948661 0.197061
rtoes -18.8818
lfemur -15.9813 12.0381 -13.8579
ltibia 34.6644
lfoot -15.5634 -9.78105
ltoes -0.453159
429
root 1.67671 16.8317 39.6965 -7.21376 3.79747 -3.75435
lowerback 8.54694 1.23525 1.95311
upperback 4.16723 1.80887 1.15742
thorax -0.455134 0.922566 -0.0616644
lowerneck -14.4429 5.5639 -3.29396
upperneck 22.7367 9.02696 -1.4644
head 9.49202 3.76241 1.14792
rclavicle -9.14409e-015 6.26172e-015
rhumerus -35.369 12.6414 -89.1778
rradius 39.5433
rwrist 392.687
rhand -21.2187 -5.31847
rfingers 7.12502
rthumb 5.16315 -35.2356
lclavicle -9.14409e-015 6.26172e-015
lhumerus -44.6244 -16.5494 98.4537
lradius 33.5092
lwrist -17.5337
lhand -40.576 7.79873
lfingers 7.12502
lthumb -13.523 37.3396
rfemur 16.9764 -6.68405 12.2522
rtibia 44.7459
rfoot 4.15739 -0.17307
rtoes -14.582
lfemur -14.8099 12.4606 -14.2329
ltibia 33.9151
lfoot -16.0002 -10.0176
ltoes -0.588085
430
root 1.72283 16.8721 39.8569 -7.51465 4.27977 -4.18218
lowerback 9.24726 1.57136 2.97606
upperback 4.49793 2.3406 0.294313
thorax -0.407807 1.21519 -1.58405
lowerneck -16.0621 5.73625 -0.872898
upperneck 23.3391 8.79122 -1.67615
head 10.1333 3.78769 0.730824
rclavicle -8.59744e-015 -7.95139e-016
rhumerus -33.8583 7.34616 -89.3619
rradius 36.6106
rwrist 396.012
rhand -22.0833 -6.20864
rfingers 7.12502
rthumb 4.32837 -36.1444
lclavicle -8.59744e-015 -7.95139e-016
lhumerus -44.6244 -16.5494 98.4537
lradius 33.5092
lwrist -17.5337
lhand -40.576 7.79873
lfingers 7.12502
lthumb -13.523 37.3396
rfemur 15.0163 -7.36925 12.6634
rtibia 48.5595
rfoot 7.38464 -0.728038
rtoes -10.9601
lfemur -13.5923 12.8841 -13.7683
ltibia 33.0783
lfoot -16.1419 -11.0256
ltoes -0.404625
431
root 1.77206 16.9075 40.0325 -7.71447 4.60773 -4.26115
lowerback 9.28078 1.46949 3.04317
upperback 4.33034 2.21778 0.442671
thorax -0.609322 1.14829 -1.46226
lowerneck -15.33 6.36865 -0.052876
upperneck 23.5013 9.75369 -2.75579
head 10.1667 4.18366 0.334278
rclavicle -3.70236e-015 -7.15625e-015
rhumerus -33.9215 5.52442 -88.7612
rradius 34.0425
rwrist 398.187
rhand -22.5648 -7.14163
rfingers 7.12502
rthumb 3.86339 -37.0864
lclavicle -3.70236e-015 -7.15625e-015
lhumerus -44.6244 -16.5494 98.4537
lradius 33.5092
lwrist -17.5337
lhand -40.576 7.79873
lfingers 7.12502
lthumb -13.523 37.3396
rfemur 13.2027 -7.88955 12.692
rtibia 51.9831
rfoot 9.67182 -1.11081
rtoes -8.01555
lfemur -12.2764 13.324 -13.6355
ltibia 32.2537
lfoot -16.4567 -11.8025
ltoes -0.492849
432
root 1.82341 16.9535 40.2057 -7.37686 4.95254 -3.27462
lowerback 8.58657 1.61914 2.01914
upperback 4.70647 2.30786 0.113806
thorax 0.135614 1.19489 -1.2045
lowerneck -15.33 6.36865 -0.052876
upperneck 23.5013 9.75369 -2.75579
head 10.1667 4.18366 0.334278
rclavicle -5.46658e-015 -1.55052e-014
rhumerus -32.5009 2.74998 -88.0682
rradius 31.1337
rwrist 401.385
rhand -23.6318 -7.91808
rfingers 7.12502
rthumb 2.83296 -37.879
lclavicle -5.46658e-015 -1.55052e-014
lhumerus -44.6244 -16.5494 98.4537
lradius 33.5092
lwrist -17.5337
lhand -40.576 7.79873
lfingers 7.12502
lthumb -13.523 37.3396
rfemur 10.9817 -8.27678 11.6131
rtibia 55.1344
rfoot 9.5575 -1.25
rtoes -6.01161
lfemur -11.4451 13.6239 -14.7935
ltibia 31.4441
lfoot -16.7415 -12.2754
ltoes -0.244735
433
root 1.86839 16.981 40.3736 -7.59611 5.50249 -3.16149
lowerback 9.85308 1.3761 2.93917
upperback 4.1124 2.08745 -0.709849
thorax -1.11385 1.08171 -2.60583
lowerneck -15.33 6.36865 -0.052876
upperneck 23.5013 9.75369 -2.75579
head 10.1667 4.18366 0.334278
rclavicle 7.25564e-015 1.66979e-014
rhumerus -32.9216 0.0510169 -88.6328
rradius 28.7254
rwrist 404.196
rhand -24.3114 -9.14571
rfingers 7.12502
rthumb 2.17663 -39.1144
lclavicle 7.25564e-015 1.66979e-014
lhumerus -44.6244 -16.5494 98.4537
lradius 33.5092
lwrist -17.5337
lhand -40.576 7.79873
lfingers 7.12502
lthumb -13.523 37.3396
rfemur 9.4824 -8.91184 11.4022
rtibia 57.9128
rfoot 6.92382 -0.977797
rtoes -7.13157
lfemur -10.1745 13.9375 -14.8688
ltibia 30.6693
lfoot -17.0471 -13.154
ltoes -0.419736
434
root 1.91365 17.0085 40.5397 -7.93679 6.24178 -2.94971
lowerback 9.23678 1.29435 1.86392
upperback 4.3263 1.88496 0.181427
thorax -0.637625 0.969579 -1.03911
lowerneck -15.33 6.36865 -0.052876
upperneck 23.5013 9.75369 -2.75579
head 10.1667 4.18366 0.334278
rclavicle 1.38901e-014 -2.78299e-015
rhumerus -32.947 -0.955267 -86.6701
rradius 26.9766
rwrist 406.572
rhand -23.8856 -10.1291
rfingers 7.12502
rthumb 2.5878 -40.0931
lclavicle 1.38901e-014 -2.78299e-015
lhumerus -44.6244 -16.5494 98.4537
lradius 33.5092
lwrist -17.5337
lhand -40.576 7.79873
lfingers 7.12502
lthumb -13.523 37.3396
rfemur 8.20105 -9.75477 11.0206
rtibia 60.4059
rfoot 4.04637 -0.442784
rtoes -7.98437
lfemur -8.8121 13.8531 -15.0454
ltibia 29.8847
lfoot -17.1621 -13.8798
ltoes -0.0922741
435
root 1.96081 17.0301 40.7056 -8.22796 7.01301 -2.74531
lowerback 8.92501 1.23495 1.46888
upperback 5.23404 1.76463 0.303414
thorax 0.453456 0.91803 -0.657592
lowerneck -15.33 6.36865 -0.052876
upperneck 23.5013 9.75369 -2.75579
head 10.1667 4.18366 0.334278
rclavicle 2.75814e-015 -4.37326e-015
rhumerus -30.6973 -1.68585 -86.2606
rradius 24.0415
rwrist 408.082
rhand -25.2096 -10.9732
rfingers 7.12502
rthumb 1.3091 -40.9489
lclavicle 2.75814e-015 -4.37326e-015
lhumerus -44.6244 -16.5494 98.4537
lradius 33.5092
lwrist -17.5337
lhand -40.576 7.79873
lfingers 7.12502
lthumb -13.523 37.3396
rfemur 6.93857 -10.5651 10.6662
rtibia 62.5403
rfoot 1.84203 0.449757
rtoes -7.5861
lfemur -7.56516 13.7479 -15.2445
ltibia 29.1894
lfoot -17.3357 -14.5535
ltoes -0.0157222
436
root 2.00839 17.0468 40.868 -8.49526 7.67269 -2.57245
lowerback 9.61233 1.10961 1.63385
upperback 4.77943 1.62582 0.099472
thorax -0.386205 0.844662 -0.972458
lowerneck -15.33 6.36865 -0.052876
upperneck 23.5013 9.75369 -2.75579
head 10.1667 4.18366 0.334278
rclavicle 2.65378e-014 -6.36111e-015
rhumerus -32.0927 -3.79022 -85.6821
rradius 23.7797
rwrist 411.061
rhand -24.484 -11.7133
rfingers 7.12502
rthumb 2.00996 -41.6836
lclavicle 2.65378e-014 -6.36111e-015
lhumerus -44.6244 -16.5494 98.4537
lradius 33.5092
lwrist -17.5337
lhand -40.576 7.79873
lfingers 7.12502
lthumb -13.523 37.3396
rfemur 5.58512 -11.1186 10.4999
rtibia 64.3554
rfoot 0.356488 1.16533
rtoes -8.44544
lfemur -6.3609 13.633 -15.4105
ltibia 28.5611
lfoot -17.584 -15.1277
ltoes 0.00849418
437
root 2.05301 17.0598 41.0324 -8.8318 8.65824 -2.55218
lowerback 9.61982 0.945409 0.71133
upperback 4.70505 1.34549 1.04103
thorax -0.520877 0.679619 0.541786
lowerneck -15.33 6.36865 -0.052876
upperneck 23.5013 9.75369 -2.75579
head 10.1667 4.18366 0.334278
rclavicle -4.36084e-015 -5.46658e-016
rhumerus -32.7505 -3.12021 -84.1817
rradius 23.1539
rwrist 412.09
rhand -24.0723 -11.7431
rfingers 7.12502
rthumb 2.40755 -41.7092
lclavicle 2.65378e-014 -6.36111e-015
lhumerus -44.6244 -16.5494 98.4537
lradius 33.5092
lwrist -17.5337
lhand -40.576 7.79873
lfingers 7.12502
lthumb -13.523 37.3396
rfemur 4.35755 -11.7493 10.4847
rtibia 66.0035
rfoot -0.869634 1.84384
rtoes -8.86701
lfemur -5.11304 13.1021 -15.4615
ltibia 27.9187
lfoot -17.8713 -15.5774
ltoes 0.0611137
